<mxfile host="app.diagrams.net" modified="2023-09-08T19:03:42.623Z" agent="Mozilla/5.0 (Windows NT 10.0; WOW64) AppleWebKit/537.36 (KHTML, like Gecko) Chrome/114.0.0.0 YaBrowser/23.7.4.972 Yowser/2.5 Safari/537.36" etag="MaW7XMJ_QL-6F-UWuWfy" version="21.7.4" type="device">
  <diagram name="Страница — 1" id="3mVQlfiBgfyPtzx5OPET">
    <mxGraphModel dx="1793" dy="1389" grid="0" gridSize="10" guides="1" tooltips="1" connect="1" arrows="1" fold="1" page="0" pageScale="1" pageWidth="827" pageHeight="1169" math="0" shadow="0">
      <root>
        <mxCell id="0" />
        <mxCell id="1" parent="0" />
        <mxCell id="1TzVKd0D4Ryt2Q8upEGD-7" value="" style="edgeStyle=orthogonalEdgeStyle;rounded=0;orthogonalLoop=1;jettySize=auto;html=1;" parent="1" edge="1">
          <mxGeometry relative="1" as="geometry">
            <mxPoint x="413.83" y="640" as="sourcePoint" />
            <mxPoint x="413.83" y="540" as="targetPoint" />
            <Array as="points">
              <mxPoint x="413.83" y="560" />
              <mxPoint x="413.83" y="560" />
            </Array>
          </mxGeometry>
        </mxCell>
        <mxCell id="1TzVKd0D4Ryt2Q8upEGD-1" value="Тренер" style="shape=umlActor;verticalLabelPosition=bottom;verticalAlign=top;html=1;outlineConnect=0;fillColor=#dae8fc;strokeColor=#6c8ebf;" parent="1" vertex="1">
          <mxGeometry x="399" y="630" width="30" height="60" as="geometry" />
        </mxCell>
        <mxCell id="1TzVKd0D4Ryt2Q8upEGD-9" value="" style="edgeStyle=orthogonalEdgeStyle;rounded=0;orthogonalLoop=1;jettySize=auto;html=1;" parent="1" edge="1">
          <mxGeometry relative="1" as="geometry">
            <mxPoint x="413.76" y="480" as="sourcePoint" />
            <mxPoint x="414" y="320" as="targetPoint" />
          </mxGeometry>
        </mxCell>
        <mxCell id="1TzVKd0D4Ryt2Q8upEGD-6" value="Пилот" style="shape=umlActor;verticalLabelPosition=bottom;verticalAlign=top;html=1;outlineConnect=0;fillColor=#dae8fc;strokeColor=#6c8ebf;" parent="1" vertex="1">
          <mxGeometry x="399" y="460" width="30" height="60" as="geometry" />
        </mxCell>
        <mxCell id="1TzVKd0D4Ryt2Q8upEGD-11" value="" style="edgeStyle=orthogonalEdgeStyle;rounded=0;orthogonalLoop=1;jettySize=auto;html=1;" parent="1" source="1TzVKd0D4Ryt2Q8upEGD-8" edge="1">
          <mxGeometry relative="1" as="geometry">
            <mxPoint x="414" y="330" as="sourcePoint" />
            <mxPoint x="414" y="90" as="targetPoint" />
          </mxGeometry>
        </mxCell>
        <mxCell id="1TzVKd0D4Ryt2Q8upEGD-10" value="Зритель" style="shape=umlActor;verticalLabelPosition=bottom;verticalAlign=top;html=1;outlineConnect=0;fillColor=#dae8fc;strokeColor=#6c8ebf;" parent="1" vertex="1">
          <mxGeometry x="399" y="10" width="30" height="60" as="geometry" />
        </mxCell>
        <mxCell id="1TzVKd0D4Ryt2Q8upEGD-16" value="Отвечает за подготовку и тренировки пилота" style="ellipse;whiteSpace=wrap;html=1;fillColor=#dae8fc;strokeColor=#6c8ebf;" parent="1" vertex="1">
          <mxGeometry x="480" y="630" width="120" height="80" as="geometry" />
        </mxCell>
        <mxCell id="1TzVKd0D4Ryt2Q8upEGD-17" value="Разрабатывает стратегию гонки" style="ellipse;whiteSpace=wrap;html=1;fillColor=#dae8fc;strokeColor=#6c8ebf;" parent="1" vertex="1">
          <mxGeometry x="690" y="630" width="120" height="80" as="geometry" />
        </mxCell>
        <mxCell id="1TzVKd0D4Ryt2Q8upEGD-18" value="Принимает тактические решения" style="ellipse;whiteSpace=wrap;html=1;fillColor=#dae8fc;strokeColor=#6c8ebf;" parent="1" vertex="1">
          <mxGeometry x="200" y="700" width="120" height="80" as="geometry" />
        </mxCell>
        <mxCell id="1TzVKd0D4Ryt2Q8upEGD-19" value="Анализирует данные" style="ellipse;whiteSpace=wrap;html=1;fillColor=#dae8fc;strokeColor=#6c8ebf;" parent="1" vertex="1">
          <mxGeometry x="200" y="600" width="120" height="80" as="geometry" />
        </mxCell>
        <mxCell id="1TzVKd0D4Ryt2Q8upEGD-20" value="Координирует работу команды" style="ellipse;whiteSpace=wrap;html=1;fillColor=#dae8fc;strokeColor=#6c8ebf;" parent="1" vertex="1">
          <mxGeometry x="630" y="730" width="140" height="90" as="geometry" />
        </mxCell>
        <mxCell id="1TzVKd0D4Ryt2Q8upEGD-21" value="" style="endArrow=classic;html=1;rounded=0;" parent="1" edge="1">
          <mxGeometry width="50" height="50" relative="1" as="geometry">
            <mxPoint x="390" y="660" as="sourcePoint" />
            <mxPoint x="320" y="645" as="targetPoint" />
          </mxGeometry>
        </mxCell>
        <mxCell id="1TzVKd0D4Ryt2Q8upEGD-22" value="" style="endArrow=classic;html=1;rounded=0;" parent="1" target="1TzVKd0D4Ryt2Q8upEGD-18" edge="1">
          <mxGeometry width="50" height="50" relative="1" as="geometry">
            <mxPoint x="400" y="670" as="sourcePoint" />
            <mxPoint x="330" y="655" as="targetPoint" />
          </mxGeometry>
        </mxCell>
        <mxCell id="1TzVKd0D4Ryt2Q8upEGD-23" value="" style="endArrow=classic;html=1;rounded=0;entryX=0;entryY=0.5;entryDx=0;entryDy=0;" parent="1" target="1TzVKd0D4Ryt2Q8upEGD-16" edge="1">
          <mxGeometry width="50" height="50" relative="1" as="geometry">
            <mxPoint x="430" y="670" as="sourcePoint" />
            <mxPoint x="550" y="580" as="targetPoint" />
          </mxGeometry>
        </mxCell>
        <mxCell id="1TzVKd0D4Ryt2Q8upEGD-24" value="" style="endArrow=classic;html=1;rounded=0;dashed=1;" parent="1" source="1TzVKd0D4Ryt2Q8upEGD-16" target="1TzVKd0D4Ryt2Q8upEGD-17" edge="1">
          <mxGeometry width="50" height="50" relative="1" as="geometry">
            <mxPoint x="590.7600000000002" y="649.9999999999999" as="sourcePoint" />
            <mxPoint x="640" y="619.12" as="targetPoint" />
          </mxGeometry>
        </mxCell>
        <mxCell id="1TzVKd0D4Ryt2Q8upEGD-25" value="" style="endArrow=classic;html=1;rounded=0;dashed=1;" parent="1" source="1TzVKd0D4Ryt2Q8upEGD-16" target="1TzVKd0D4Ryt2Q8upEGD-20" edge="1">
          <mxGeometry width="50" height="50" relative="1" as="geometry">
            <mxPoint x="450" y="704.8" as="sourcePoint" />
            <mxPoint x="581.6800000000001" y="770" as="targetPoint" />
          </mxGeometry>
        </mxCell>
        <mxCell id="1TzVKd0D4Ryt2Q8upEGD-26" value="Управляет машиной" style="ellipse;whiteSpace=wrap;html=1;fillColor=#dae8fc;strokeColor=#6c8ebf;" parent="1" vertex="1">
          <mxGeometry x="490" y="440" width="120" height="80" as="geometry" />
        </mxCell>
        <mxCell id="1TzVKd0D4Ryt2Q8upEGD-27" value="Обладает навыками быстроты реакции и точности в управлении автомобилем" style="ellipse;whiteSpace=wrap;html=1;fillColor=#dae8fc;strokeColor=#6c8ebf;" parent="1" vertex="1">
          <mxGeometry x="640" y="530" width="150" height="100" as="geometry" />
        </mxCell>
        <mxCell id="1TzVKd0D4Ryt2Q8upEGD-29" value="Знакомится с историей команд и пилотов" style="ellipse;whiteSpace=wrap;html=1;fillColor=#dae8fc;strokeColor=#6c8ebf;" parent="1" vertex="1">
          <mxGeometry x="210" y="-90" width="120" height="80" as="geometry" />
        </mxCell>
        <mxCell id="1TzVKd0D4Ryt2Q8upEGD-30" value="Соблюдает правила и тактику гонки" style="ellipse;whiteSpace=wrap;html=1;fillColor=#dae8fc;strokeColor=#6c8ebf;" parent="1" vertex="1">
          <mxGeometry x="190" y="430" width="120" height="80" as="geometry" />
        </mxCell>
        <mxCell id="1TzVKd0D4Ryt2Q8upEGD-31" value="Принимает решения на трассе" style="ellipse;whiteSpace=wrap;html=1;fillColor=#dae8fc;strokeColor=#6c8ebf;" parent="1" vertex="1">
          <mxGeometry x="695" y="420" width="130" height="80" as="geometry" />
        </mxCell>
        <mxCell id="1TzVKd0D4Ryt2Q8upEGD-32" value="Принимает участие в испытаниях и разработках новых компонентов автомобиля." style="ellipse;whiteSpace=wrap;html=1;fillColor=#dae8fc;strokeColor=#6c8ebf;" parent="1" vertex="1">
          <mxGeometry x="600" y="300" width="160" height="90" as="geometry" />
        </mxCell>
        <mxCell id="1TzVKd0D4Ryt2Q8upEGD-8" value="Комментатор" style="shape=umlActor;verticalLabelPosition=bottom;verticalAlign=top;html=1;outlineConnect=0;fillColor=#dae8fc;strokeColor=#6c8ebf;" parent="1" vertex="1">
          <mxGeometry x="399" y="240" width="30" height="60" as="geometry" />
        </mxCell>
        <mxCell id="1TzVKd0D4Ryt2Q8upEGD-36" value="" style="endArrow=classic;html=1;rounded=0;" parent="1" target="1TzVKd0D4Ryt2Q8upEGD-30" edge="1">
          <mxGeometry width="50" height="50" relative="1" as="geometry">
            <mxPoint x="390" y="490" as="sourcePoint" />
            <mxPoint x="330" y="655" as="targetPoint" />
          </mxGeometry>
        </mxCell>
        <mxCell id="1TzVKd0D4Ryt2Q8upEGD-37" value="" style="endArrow=classic;html=1;rounded=0;" parent="1" source="1TzVKd0D4Ryt2Q8upEGD-6" target="1TzVKd0D4Ryt2Q8upEGD-26" edge="1">
          <mxGeometry width="50" height="50" relative="1" as="geometry">
            <mxPoint x="330" y="623.2" as="sourcePoint" />
            <mxPoint x="385.8800000000001" y="440.00000000000017" as="targetPoint" />
          </mxGeometry>
        </mxCell>
        <mxCell id="1TzVKd0D4Ryt2Q8upEGD-38" value="" style="endArrow=classic;html=1;rounded=0;dashed=1;" parent="1" source="1TzVKd0D4Ryt2Q8upEGD-26" target="1TzVKd0D4Ryt2Q8upEGD-31" edge="1">
          <mxGeometry width="50" height="50" relative="1" as="geometry">
            <mxPoint x="620" y="460" as="sourcePoint" />
            <mxPoint x="680" y="460" as="targetPoint" />
          </mxGeometry>
        </mxCell>
        <mxCell id="1TzVKd0D4Ryt2Q8upEGD-39" value="" style="endArrow=classic;html=1;rounded=0;dashed=1;" parent="1" source="1TzVKd0D4Ryt2Q8upEGD-26" target="1TzVKd0D4Ryt2Q8upEGD-32" edge="1">
          <mxGeometry width="50" height="50" relative="1" as="geometry">
            <mxPoint x="560" y="440" as="sourcePoint" />
            <mxPoint x="620" y="440" as="targetPoint" />
          </mxGeometry>
        </mxCell>
        <mxCell id="1TzVKd0D4Ryt2Q8upEGD-40" value="" style="endArrow=classic;html=1;rounded=0;dashed=1;" parent="1" source="1TzVKd0D4Ryt2Q8upEGD-26" target="1TzVKd0D4Ryt2Q8upEGD-27" edge="1">
          <mxGeometry width="50" height="50" relative="1" as="geometry">
            <mxPoint x="499.65" y="550" as="sourcePoint" />
            <mxPoint x="570.0000000000001" y="556.3" as="targetPoint" />
          </mxGeometry>
        </mxCell>
        <mxCell id="1TzVKd0D4Ryt2Q8upEGD-41" value="Создает атмосферу азарта и эмоций" style="ellipse;whiteSpace=wrap;html=1;fillColor=#dae8fc;strokeColor=#6c8ebf;" parent="1" vertex="1">
          <mxGeometry x="715" width="120" height="80" as="geometry" />
        </mxCell>
        <mxCell id="1TzVKd0D4Ryt2Q8upEGD-42" value="Поддерживает и скандирует любимым пилотам" style="ellipse;whiteSpace=wrap;html=1;fillColor=#dae8fc;strokeColor=#6c8ebf;" parent="1" vertex="1">
          <mxGeometry x="590" y="-150" width="130" height="80" as="geometry" />
        </mxCell>
        <mxCell id="1TzVKd0D4Ryt2Q8upEGD-43" value="Наблюдает за гонкой" style="ellipse;whiteSpace=wrap;html=1;fillColor=#dae8fc;strokeColor=#6c8ebf;" parent="1" vertex="1">
          <mxGeometry x="500" width="130" height="80" as="geometry" />
        </mxCell>
        <mxCell id="1TzVKd0D4Ryt2Q8upEGD-44" value="Проводит интервью с пилотами, анализирует прошлые гонки и результаты." style="ellipse;whiteSpace=wrap;html=1;fillColor=#dae8fc;strokeColor=#6c8ebf;" parent="1" vertex="1">
          <mxGeometry x="170" y="225" width="150" height="90" as="geometry" />
        </mxCell>
        <mxCell id="1TzVKd0D4Ryt2Q8upEGD-45" value="Информирует зрителей о текущем положении дел" style="ellipse;whiteSpace=wrap;html=1;fillColor=#dae8fc;strokeColor=#6c8ebf;" parent="1" vertex="1">
          <mxGeometry x="680" y="190" width="120" height="80" as="geometry" />
        </mxCell>
        <mxCell id="1TzVKd0D4Ryt2Q8upEGD-46" value="Освещает особенности стратегий и тактик команд" style="ellipse;whiteSpace=wrap;html=1;fillColor=#dae8fc;strokeColor=#6c8ebf;" parent="1" vertex="1">
          <mxGeometry x="585" y="90" width="120" height="80" as="geometry" />
        </mxCell>
        <mxCell id="1TzVKd0D4Ryt2Q8upEGD-47" value="Анализирует и комментирует происходящее на трассе" style="ellipse;whiteSpace=wrap;html=1;fillColor=#dae8fc;strokeColor=#6c8ebf;" parent="1" vertex="1">
          <mxGeometry x="480" y="230" width="120" height="80" as="geometry" />
        </mxCell>
        <mxCell id="1TzVKd0D4Ryt2Q8upEGD-48" value="" style="endArrow=classic;html=1;rounded=0;" parent="1" source="1TzVKd0D4Ryt2Q8upEGD-8" target="1TzVKd0D4Ryt2Q8upEGD-44" edge="1">
          <mxGeometry width="50" height="50" relative="1" as="geometry">
            <mxPoint x="401" y="301.5625" as="sourcePoint" />
            <mxPoint x="320" y="310" as="targetPoint" />
          </mxGeometry>
        </mxCell>
        <mxCell id="1TzVKd0D4Ryt2Q8upEGD-50" value="" style="endArrow=classic;html=1;rounded=0;dashed=1;" parent="1" source="1TzVKd0D4Ryt2Q8upEGD-47" target="1TzVKd0D4Ryt2Q8upEGD-46" edge="1">
          <mxGeometry width="50" height="50" relative="1" as="geometry">
            <mxPoint x="540" y="230" as="sourcePoint" />
            <mxPoint x="575" y="190" as="targetPoint" />
          </mxGeometry>
        </mxCell>
        <mxCell id="1TzVKd0D4Ryt2Q8upEGD-51" value="" style="endArrow=classic;html=1;rounded=0;dashed=1;" parent="1" source="1TzVKd0D4Ryt2Q8upEGD-47" target="1TzVKd0D4Ryt2Q8upEGD-45" edge="1">
          <mxGeometry width="50" height="50" relative="1" as="geometry">
            <mxPoint x="600" y="465" as="sourcePoint" />
            <mxPoint x="635" y="425" as="targetPoint" />
          </mxGeometry>
        </mxCell>
        <mxCell id="1TzVKd0D4Ryt2Q8upEGD-53" value="" style="endArrow=classic;html=1;rounded=0;" parent="1" source="1TzVKd0D4Ryt2Q8upEGD-8" target="1TzVKd0D4Ryt2Q8upEGD-47" edge="1">
          <mxGeometry width="50" height="50" relative="1" as="geometry">
            <mxPoint x="409" y="281" as="sourcePoint" />
            <mxPoint x="329" y="289" as="targetPoint" />
          </mxGeometry>
        </mxCell>
        <mxCell id="1TzVKd0D4Ryt2Q8upEGD-54" value="Может также оценивать гонщиков и комментарии экспертов" style="ellipse;whiteSpace=wrap;html=1;fillColor=#dae8fc;strokeColor=#6c8ebf;" parent="1" vertex="1">
          <mxGeometry x="20" y="40" width="120" height="80" as="geometry" />
        </mxCell>
        <mxCell id="1TzVKd0D4Ryt2Q8upEGD-55" value="Поддерживает гоночный спорт" style="ellipse;whiteSpace=wrap;html=1;fillColor=#dae8fc;strokeColor=#6c8ebf;" parent="1" vertex="1">
          <mxGeometry x="230" y="40" width="120" height="80" as="geometry" />
        </mxCell>
        <mxCell id="1TzVKd0D4Ryt2Q8upEGD-56" value="" style="endArrow=classic;html=1;rounded=0;" parent="1" source="1TzVKd0D4Ryt2Q8upEGD-10" target="1TzVKd0D4Ryt2Q8upEGD-55" edge="1">
          <mxGeometry width="50" height="50" relative="1" as="geometry">
            <mxPoint x="429" y="10" as="sourcePoint" />
            <mxPoint x="349" y="18" as="targetPoint" />
          </mxGeometry>
        </mxCell>
        <mxCell id="1TzVKd0D4Ryt2Q8upEGD-57" value="" style="endArrow=classic;html=1;rounded=0;" parent="1" target="1TzVKd0D4Ryt2Q8upEGD-29" edge="1">
          <mxGeometry width="50" height="50" relative="1" as="geometry">
            <mxPoint x="390" y="30" as="sourcePoint" />
            <mxPoint x="339" y="18" as="targetPoint" />
          </mxGeometry>
        </mxCell>
        <mxCell id="1TzVKd0D4Ryt2Q8upEGD-58" value="" style="endArrow=classic;html=1;rounded=0;" parent="1" source="1TzVKd0D4Ryt2Q8upEGD-10" target="1TzVKd0D4Ryt2Q8upEGD-43" edge="1">
          <mxGeometry width="50" height="50" relative="1" as="geometry">
            <mxPoint x="509" y="36" as="sourcePoint" />
            <mxPoint x="429" y="44" as="targetPoint" />
          </mxGeometry>
        </mxCell>
        <mxCell id="1TzVKd0D4Ryt2Q8upEGD-59" value="" style="endArrow=classic;html=1;rounded=0;dashed=1;" parent="1" source="1TzVKd0D4Ryt2Q8upEGD-43" target="1TzVKd0D4Ryt2Q8upEGD-42" edge="1">
          <mxGeometry width="50" height="50" relative="1" as="geometry">
            <mxPoint x="490" y="10" as="sourcePoint" />
            <mxPoint x="525" y="-30" as="targetPoint" />
          </mxGeometry>
        </mxCell>
        <mxCell id="1TzVKd0D4Ryt2Q8upEGD-60" value="" style="endArrow=classic;html=1;rounded=0;dashed=1;" parent="1" source="1TzVKd0D4Ryt2Q8upEGD-43" target="1TzVKd0D4Ryt2Q8upEGD-41" edge="1">
          <mxGeometry width="50" height="50" relative="1" as="geometry">
            <mxPoint x="600" y="100" as="sourcePoint" />
            <mxPoint x="635" y="60" as="targetPoint" />
          </mxGeometry>
        </mxCell>
        <mxCell id="1TzVKd0D4Ryt2Q8upEGD-61" value="" style="endArrow=classic;html=1;rounded=0;dashed=1;" parent="1" source="1TzVKd0D4Ryt2Q8upEGD-55" target="1TzVKd0D4Ryt2Q8upEGD-54" edge="1">
          <mxGeometry width="50" height="50" relative="1" as="geometry">
            <mxPoint x="190" y="140" as="sourcePoint" />
            <mxPoint x="225" y="100" as="targetPoint" />
          </mxGeometry>
        </mxCell>
        <mxCell id="1TzVKd0D4Ryt2Q8upEGD-62" value="&amp;lt;&amp;lt;Include&amp;gt;&amp;gt;" style="text;html=1;align=center;verticalAlign=middle;whiteSpace=wrap;rounded=0;rotation=30;" parent="1" vertex="1">
          <mxGeometry x="590" y="700" width="60" height="30" as="geometry" />
        </mxCell>
        <mxCell id="1TzVKd0D4Ryt2Q8upEGD-63" value="&amp;lt;&amp;lt;Include&amp;gt;&amp;gt;" style="text;html=1;align=center;verticalAlign=middle;whiteSpace=wrap;rounded=0;" parent="1" vertex="1">
          <mxGeometry x="610" y="645" width="60" height="30" as="geometry" />
        </mxCell>
        <mxCell id="1TzVKd0D4Ryt2Q8upEGD-64" value="&amp;lt;&amp;lt;Include&amp;gt;&amp;gt;" style="text;html=1;align=center;verticalAlign=middle;whiteSpace=wrap;rounded=0;rotation=30;" parent="1" vertex="1">
          <mxGeometry x="605" y="510" width="50" height="20" as="geometry" />
        </mxCell>
        <mxCell id="1TzVKd0D4Ryt2Q8upEGD-66" value="&amp;lt;&amp;lt;Include&amp;gt;&amp;gt;" style="text;html=1;align=center;verticalAlign=middle;whiteSpace=wrap;rounded=0;rotation=-5;" parent="1" vertex="1">
          <mxGeometry x="620" y="445" width="60" height="30" as="geometry" />
        </mxCell>
        <mxCell id="1TzVKd0D4Ryt2Q8upEGD-67" value="&amp;lt;&amp;lt;Include&amp;gt;&amp;gt;" style="text;html=1;align=center;verticalAlign=middle;whiteSpace=wrap;rounded=0;rotation=-45;" parent="1" vertex="1">
          <mxGeometry x="570" y="400" width="60" height="30" as="geometry" />
        </mxCell>
        <mxCell id="1TzVKd0D4Ryt2Q8upEGD-68" value="&amp;lt;&amp;lt;Include&amp;gt;&amp;gt;" style="text;html=1;align=center;verticalAlign=middle;whiteSpace=wrap;rounded=0;rotation=-15;" parent="1" vertex="1">
          <mxGeometry x="600" y="230" width="60" height="30" as="geometry" />
        </mxCell>
        <mxCell id="1TzVKd0D4Ryt2Q8upEGD-69" value="&amp;lt;&amp;lt;Include&amp;gt;&amp;gt;" style="text;html=1;align=center;verticalAlign=middle;whiteSpace=wrap;rounded=0;rotation=-55;" parent="1" vertex="1">
          <mxGeometry x="550" y="180" width="60" height="30" as="geometry" />
        </mxCell>
        <mxCell id="1TzVKd0D4Ryt2Q8upEGD-70" value="&amp;lt;&amp;lt;Include&amp;gt;&amp;gt;" style="text;html=1;align=center;verticalAlign=middle;whiteSpace=wrap;rounded=0;" parent="1" vertex="1">
          <mxGeometry x="160" y="60" width="60" height="30" as="geometry" />
        </mxCell>
        <mxCell id="1TzVKd0D4Ryt2Q8upEGD-71" value="&amp;lt;&amp;lt;Include&amp;gt;&amp;gt;" style="text;html=1;align=center;verticalAlign=middle;whiteSpace=wrap;rounded=0;" parent="1" vertex="1">
          <mxGeometry x="640" y="20" width="60" height="30" as="geometry" />
        </mxCell>
        <mxCell id="1TzVKd0D4Ryt2Q8upEGD-72" value="&amp;lt;&amp;lt;Include&amp;gt;&amp;gt;" style="text;html=1;align=center;verticalAlign=middle;whiteSpace=wrap;rounded=0;rotation=-60;" parent="1" vertex="1">
          <mxGeometry x="570" y="-50" width="60" height="30" as="geometry" />
        </mxCell>
      </root>
    </mxGraphModel>
  </diagram>
</mxfile>
